<?xml version="1.0" standalone="no"?>
<!DOCTYPE svg PUBLIC "-//W3C//DTD SVG 20010904//EN"
 "http://www.w3.org/TR/2001/REC-SVG-20010904/DTD/svg10.dtd">
<svg version="1.0" xmlns="http://www.w3.org/2000/svg"
 width="1024.000000pt" height="1024.000000pt" viewBox="0 0 1024.000000 1024.000000"
 preserveAspectRatio="xMidYMid meet">

<g transform="translate(0.000000,1024.000000) scale(0.100000,-0.100000)"
fill="#000000" stroke="none">
<path d="M8765 9025 c-125 -58 -352 -125 -685 -205 -250 -59 -439 -124 -617
-211 -214 -106 -374 -228 -510 -391 -228 -274 -374 -653 -373 -973 0 -66 24
-262 32 -271 3 -2 27 29 56 70 114 164 256 312 434 456 142 115 253 186 822
526 140 83 344 225 444 308 132 111 167 89 55 -35 -117 -131 -435 -441 -562
-549 -68 -58 -169 -145 -225 -194 -56 -49 -113 -98 -128 -109 -16 -12 -28 -27
-28 -34 0 -7 -6 -13 -13 -13 -16 0 -197 -181 -197 -197 0 -6 -6 -13 -13 -15
-13 -3 -94 -90 -134 -143 -88 -119 -167 -233 -187 -272 l-15 -30 72 -21 c153
-46 211 -55 373 -59 134 -4 180 -1 275 17 302 56 526 174 740 389 118 119 190
216 272 371 105 196 193 471 217 676 6 55 15 129 21 166 12 85 11 160 -1 273
-6 50 -15 133 -21 185 -8 79 -33 202 -55 283 -6 20 -9 20 -49 2z"/>
<path d="M6645 8967 c-53 -25 -94 -75 -100 -126 -9 -66 -12 -73 -42 -106 -75
-81 -195 -259 -253 -374 -62 -123 -93 -199 -151 -376 -5 -16 -21 -106 -34
-200 -56 -385 -15 -716 136 -1095 57 -144 130 -282 137 -260 2 8 22 51 43 95
l39 81 -26 64 c-71 179 -109 315 -130 465 -8 55 -18 130 -24 168 -5 37 -10
106 -10 153 0 84 24 322 40 399 14 67 40 169 47 185 3 8 7 17 8 20 1 3 7 18
13 33 7 16 12 32 12 36 0 10 60 145 97 216 38 76 80 141 147 231 58 79 62 82
106 86 110 11 182 130 135 224 -37 76 -122 112 -190 81z"/>
<path d="M4641 8685 c-107 -13 -203 -26 -215 -30 -12 -3 -66 -14 -121 -25
-184 -35 -225 -46 -483 -131 -182 -59 -366 -136 -552 -228 -164 -82 -257 -136
-421 -245 -62 -41 -257 -189 -299 -226 -42 -38 -44 -38 150 28 328 113 506
155 936 222 188 29 669 59 899 55 204 -3 215 -4 215 -24 0 -19 -64 -39 -295
-92 -44 -10 -116 -27 -160 -38 -44 -11 -125 -32 -180 -45 -55 -14 -136 -35
-180 -46 -44 -12 -114 -29 -155 -40 -424 -107 -906 -294 -1235 -479 -547 -307
-931 -806 -1109 -1443 -15 -51 -33 -115 -40 -143 -48 -170 -86 -468 -93 -738
-5 -158 13 -445 37 -598 85 -553 295 -1079 624 -1564 330 -487 812 -923 1339
-1212 183 -100 267 -142 267 -133 0 15 92 209 139 295 89 160 197 308 327 451
51 55 93 109 96 120 2 10 12 20 24 22 11 2 54 32 94 68 316 278 716 476 1165
579 172 39 195 43 280 55 44 6 103 15 130 21 28 5 120 18 205 29 279 35 454
72 571 121 88 38 220 116 285 168 47 39 151 150 202 216 51 65 140 217 289
495 22 41 55 102 73 135 19 33 40 74 49 90 9 17 36 63 60 103 34 56 48 72 67
72 12 0 25 -4 28 -9 12 -18 139 -34 230 -28 176 11 318 82 484 241 56 54 144
154 196 223 267 354 333 615 226 892 -42 108 -103 182 -174 211 -53 21 -61 22
-98 9 -108 -35 -158 -135 -108 -217 21 -34 74 -72 102 -72 9 0 28 -15 42 -32
60 -81 59 -203 -3 -347 -98 -226 -356 -531 -511 -605 -61 -29 -72 -31 -180
-31 -97 0 -122 4 -163 22 -164 76 -267 245 -267 439 0 72 35 272 50 284 3 3
19 41 34 85 107 301 183 418 314 489 66 35 172 49 172 22 0 -9 20 -37 45 -61
38 -39 50 -45 85 -45 85 0 172 78 172 152 -1 89 -80 175 -187 202 -182 46
-392 -18 -547 -166 -56 -54 -131 -156 -168 -229 -68 -133 -198 -468 -225 -579
-28 -111 -26 -272 4 -370 32 -102 89 -213 150 -288 28 -34 51 -67 51 -74 0
-10 -39 -86 -150 -292 -40 -74 -158 -282 -180 -316 -5 -8 -27 -46 -49 -85 -74
-130 -139 -219 -221 -301 -130 -130 -220 -175 -463 -233 -68 -16 -306 -43
-317 -36 -6 4 -10 164 -10 411 l0 404 459 0 c489 0 471 -2 486 50 9 29 83 204
131 309 l34 73 -35 48 c-52 71 -109 202 -133 305 -61 268 -22 514 147 907 27
62 47 116 44 120 -2 5 -258 8 -569 8 l-564 0 -2 613 c-4 909 -2 1047 16 1167
30 201 56 405 53 420 -1 8 -15 -23 -30 -70 -77 -236 -208 -428 -422 -615 -163
-143 -485 -296 -790 -375 -16 -5 -84 -23 -150 -40 -131 -35 -239 -62 -355 -88
l-75 -17 0 -495 0 -495 -767 -5 c-421 -3 -769 -7 -771 -10 -3 -3 -3 -97 0
-210 l6 -205 18 40 c24 51 41 78 57 88 6 4 12 13 12 19 0 12 61 78 72 78 5 0
29 15 55 33 27 19 68 39 93 46 25 7 53 17 62 22 23 12 273 12 296 0 9 -5 35
-14 57 -21 62 -19 123 -49 129 -65 3 -8 11 -15 19 -15 46 0 167 -192 186 -295
21 -113 8 -444 -19 -480 -4 -5 -13 -40 -21 -77 -7 -38 -15 -68 -19 -68 -3 0
-12 -21 -19 -47 -8 -27 -18 -54 -24 -60 -5 -7 -7 -13 -4 -13 4 0 -6 -24 -21
-53 -15 -29 -34 -71 -41 -95 -8 -23 -17 -42 -22 -42 -4 0 -10 -12 -13 -27 -4
-16 -26 -68 -51 -118 -24 -49 -58 -121 -76 -160 -19 -38 -35 -73 -37 -77 -2
-5 185 -8 416 -8 l420 0 7 -152 c9 -208 2 -1354 -8 -1365 -13 -12 -300 -6
-377 7 -216 39 -306 66 -466 137 -224 100 -411 230 -600 418 -117 116 -145
148 -236 265 -206 264 -364 606 -447 965 -32 139 -61 407 -61 565 0 134 29
414 50 485 5 17 14 57 20 89 36 180 218 631 286 707 8 8 14 19 14 23 0 14 96
154 169 246 88 111 284 310 391 396 147 119 352 241 550 328 131 57 399 141
740 231 401 106 499 139 685 232 336 169 520 427 557 780 6 62 8 116 4 120 -4
5 -157 9 -339 10 -293 1 -355 -1 -526 -22z"/>
<path d="M3131 5524 c-60 -69 -72 -126 -50 -238 16 -76 66 -133 125 -142 36
-5 45 -2 77 26 21 18 37 38 37 46 0 8 5 14 11 14 5 0 8 4 5 9 -4 5 -1 11 4 13
15 5 24 105 16 171 -6 45 -15 64 -47 101 -38 43 -44 46 -89 46 -45 0 -51 -3
-89 -46z"/>
<path d="M2698 4640 l2 -420 113 0 112 1 69 142 c37 78 86 178 107 222 21 44
41 92 45 108 3 15 10 27 15 27 5 0 8 3 7 8 -1 4 4 20 10 35 7 16 12 29 12 30
0 1 -48 2 -108 3 -80 0 -114 5 -137 17 -16 9 -36 17 -43 17 -7 0 -15 7 -18 15
-4 8 -12 15 -19 15 -6 0 -34 24 -61 54 -67 73 -74 83 -67 90 4 3 2 6 -4 6 -6
0 -14 11 -17 25 -4 14 -10 25 -14 25 -4 0 -6 -189 -4 -420z"/>
<path d="M8884 4477 c-195 -112 -457 -327 -824 -677 -303 -289 -490 -441 -735
-601 -397 -259 -806 -432 -1450 -614 -166 -47 -189 -54 -370 -111 -246 -79
-380 -136 -580 -247 -159 -88 -366 -269 -500 -436 -82 -103 -168 -245 -210
-346 -20 -50 -41 -98 -46 -107 -5 -10 -9 -21 -9 -26 0 -17 212 -63 400 -87
253 -32 309 -35 562 -35 400 1 718 45 1123 158 76 21 321 108 407 145 77 32
323 154 382 189 28 17 65 39 81 48 80 46 114 67 155 95 25 18 68 47 95 66 97
66 331 258 434 355 138 130 301 312 301 336 0 10 6 18 13 18 13 0 104 111 172
207 95 136 235 375 235 402 0 10 7 22 15 25 9 3 23 22 31 42 8 20 29 63 45 97
17 34 55 125 85 202 30 77 59 149 64 160 38 84 120 414 150 608 11 65 22 127
25 138 8 25 -1 24 -51 -4z"/>
</g>
</svg>
